<svg width="64" height="48" viewBox ="0 0 64 48" xmlns="http://www.w3.org/2000/svg" style="vector-effect: non-scaling-stroke;" stroke="null">
 <!-- Created with Method Draw - http://github.com/duopixel/Method-Draw/ -->
 <g stroke="null">
  <title stroke="null">background</title>
  <rect stroke="null" fill="#bf0000" id="canvas_background" height="50" width="66" y="-1" x="-1"/>
 </g>
 <g stroke="null">
  <title stroke="null">Layer 1</title>
  <rect stroke="#ffffff" id="svg_7" height="2.5" width="30.374999" y="41.4375" x="0.5625" stroke-width="null" fill="#ffffff"/>
  <rect stroke="#ffffff" id="svg_8" height="2.5" width="30.374999" y="34.0625" x="0.4375" stroke-width="null" fill="#ffffff"/>
  <rect stroke="#ffffff" id="svg_9" height="2.5" width="30.374999" y="26.5625" x="0.4375" stroke-width="null" fill="#ffffff"/>
  <rect stroke="#ffffff" id="svg_10" height="2.5" width="30.374999" y="18.9375" x="0.4375" stroke-width="null" fill="#ffffff"/>
  <rect stroke="#ffffff" id="svg_12" height="2.5" width="30.374999" y="11.5625" x="0.5625" stroke-width="null" fill="#ffffff"/>
  <rect stroke="#ffffff" id="svg_13" height="2.5" width="30.374999" y="4.4375" x="0.4375" stroke-width="null" fill="#ffffff"/>
  <rect stroke="#002776" id="svg_2" height="25.249999" width="24.874999" y="0.437501" x="0.4375" stroke-width="null" fill="#002776"/>
  <path style="vector-effect: non-scaling-stroke;" id="svg_14" d="m1.042812,1.960222l1.09816,0l0.33934,-1.002664l0.33934,1.002664l1.09816,0l-0.888428,0.619673l0.339357,1.002664l-0.888429,-0.61969l-0.888429,0.61969l0.339358,-1.002664l-0.888429,-0.619673z" stroke-width="null" fill="#ffffff"/>
  <path style="vector-effect: non-scaling-stroke;" id="svg_15" d="m5.167812,1.960222l1.09816,0l0.33934,-1.002664l0.33934,1.002664l1.09816,0l-0.888428,0.619673l0.339357,1.002664l-0.888429,-0.61969l-0.888428,0.61969l0.339357,-1.002664l-0.888429,-0.619673z" stroke-width="null" fill="#ffffff"/>
  <path style="vector-effect: non-scaling-stroke;" id="svg_16" d="m9.167812,1.960222l1.09816,0l0.33934,-1.002664l0.33934,1.002664l1.09816,0l-0.888428,0.619673l0.339357,1.002664l-0.888429,-0.61969l-0.888428,0.61969l0.339357,-1.002664l-0.888429,-0.619673z" stroke-width="null" fill="#ffffff"/>
  <path style="vector-effect: non-scaling-stroke;" id="svg_17" d="m13.167812,1.960222l1.09816,0l0.33934,-1.002664l0.33934,1.002664l1.09816,0l-0.888428,0.619673l0.339357,1.002664l-0.888429,-0.61969l-0.888428,0.61969l0.339357,-1.002664l-0.888429,-0.619673z" stroke-width="null" fill="#ffffff"/>
  <path style="vector-effect: non-scaling-stroke;" id="svg_18" d="m17.292812,1.835222l1.09816,0l0.33934,-1.002664l0.33934,1.002664l1.09816,0l-0.888428,0.619673l0.339357,1.002664l-0.888429,-0.61969l-0.888428,0.61969l0.339357,-1.002664l-0.888429,-0.619673z" stroke-width="null" fill="#ffffff"/>
  <path style="vector-effect: non-scaling-stroke;" id="svg_19" d="m21.417812,1.835222l1.09816,0l0.33934,-1.002664l0.33934,1.002664l1.09816,0l-0.888428,0.619673l0.339357,1.002664l-0.888429,-0.61969l-0.888428,0.61969l0.339357,-1.002664l-0.888429,-0.619673z" stroke-width="null" fill="#ffffff"/>
  <path style="vector-effect: non-scaling-stroke;" id="svg_20" d="m1.167812,1.960222l1.09816,0l0.33934,-1.002664l0.33934,1.002664l1.09816,0l-0.888428,0.619673l0.339357,1.002664l-0.888429,-0.61969l-0.888428,0.61969l0.339357,-1.002664l-0.888429,-0.619673z" stroke-width="null" fill="#ffffff"/>
  <path style="vector-effect: non-scaling-stroke;" id="svg_21" d="m5.292812,1.960222l1.09816,0l0.33934,-1.002664l0.33934,1.002664l1.09816,0l-0.888428,0.619673l0.339357,1.002664l-0.888429,-0.61969l-0.888428,0.61969l0.339357,-1.002664l-0.888429,-0.619673z" stroke-width="null" fill="#ffffff"/>
  <path style="vector-effect: non-scaling-stroke;" id="svg_22" d="m9.292812,1.960222l1.09816,0l0.33934,-1.002664l0.33934,1.002664l1.09816,0l-0.888428,0.619673l0.339357,1.002664l-0.888429,-0.61969l-0.888428,0.61969l0.339357,-1.002664l-0.888429,-0.619673z" stroke-width="null" fill="#ffffff"/>
  <path style="vector-effect: non-scaling-stroke;" id="svg_23" d="m13.292812,1.960222l1.09816,0l0.33934,-1.002664l0.33934,1.002664l1.09816,0l-0.888428,0.619673l0.339357,1.002664l-0.888429,-0.61969l-0.888428,0.61969l0.339357,-1.002664l-0.888429,-0.619673z" stroke-width="null" fill="#ffffff"/>
  <path style="vector-effect: non-scaling-stroke;" id="svg_24" d="m17.417812,1.835222l1.09816,0l0.33934,-1.002664l0.33934,1.002664l1.09816,0l-0.888428,0.619673l0.339357,1.002664l-0.888429,-0.61969l-0.888428,0.61969l0.339357,-1.002664l-0.888429,-0.619673z" stroke-width="null" fill="#ffffff"/>
  <path style="vector-effect: non-scaling-stroke;" id="svg_25" d="m21.542812,1.835222l1.09816,0l0.33934,-1.002664l0.33934,1.002664l1.09816,0l-0.888428,0.619673l0.339357,1.002664l-0.888429,-0.61969l-0.888428,0.61969l0.339357,-1.002664l-0.888429,-0.619673z" stroke-width="null" fill="#ffffff"/>
  <path style="vector-effect: non-scaling-stroke;" id="svg_38" d="m1.042812,23.585222l1.09816,0l0.33934,-1.002664l0.33934,1.002664l1.09816,0l-0.888428,0.619673l0.339357,1.002664l-0.888429,-0.61969l-0.888428,0.61969l0.339357,-1.002664l-0.888429,-0.619673z" stroke-width="null" fill="#ffffff"/>
  <path style="vector-effect: non-scaling-stroke;" id="svg_39" d="m5.167812,23.585222l1.09816,0l0.33934,-1.002664l0.33934,1.002664l1.09816,0l-0.888428,0.619673l0.339357,1.002664l-0.888429,-0.61969l-0.888428,0.61969l0.339357,-1.002664l-0.888429,-0.619673z" stroke-width="null" fill="#ffffff"/>
  <path style="vector-effect: non-scaling-stroke;" id="svg_40" d="m9.167812,23.585222l1.09816,0l0.33934,-1.002664l0.33934,1.002664l1.09816,0l-0.888428,0.619673l0.339357,1.002664l-0.888429,-0.61969l-0.888428,0.61969l0.339357,-1.002664l-0.888429,-0.619673z" stroke-width="null" fill="#ffffff"/>
  <path style="vector-effect: non-scaling-stroke;" id="svg_41" d="m13.167812,23.585222l1.09816,0l0.33934,-1.002664l0.33934,1.002664l1.09816,0l-0.888428,0.619673l0.339357,1.002664l-0.888429,-0.61969l-0.888428,0.61969l0.339357,-1.002664l-0.888429,-0.619673z" stroke-width="null" fill="#ffffff"/>
  <path style="vector-effect: non-scaling-stroke;" id="svg_42" d="m17.292812,23.460222l1.09816,0l0.33934,-1.002664l0.33934,1.002664l1.09816,0l-0.888428,0.619673l0.339357,1.002664l-0.888429,-0.61969l-0.888428,0.61969l0.339357,-1.002664l-0.888429,-0.619673z" stroke-width="null" fill="#ffffff"/>
  <path style="vector-effect: non-scaling-stroke;" id="svg_43" d="m21.417812,23.460222l1.09816,0l0.33934,-1.002664l0.33934,1.002664l1.09816,0l-0.888428,0.619673l0.339357,1.002664l-0.888429,-0.61969l-0.888428,0.61969l0.339357,-1.002664l-0.888429,-0.619673z" stroke-width="null" fill="#ffffff"/>
  <path style="vector-effect: non-scaling-stroke;" id="svg_44" d="m1.167812,12.960222l1.09816,0l0.33934,-1.002664l0.33934,1.002664l1.09816,0l-0.888428,0.619673l0.339357,1.002664l-0.888429,-0.61969l-0.888428,0.61969l0.339357,-1.002664l-0.888429,-0.619673z" stroke-width="null" fill="#ffffff"/>
  <path style="vector-effect: non-scaling-stroke;" id="svg_45" d="m5.292812,12.960222l1.09816,0l0.33934,-1.002664l0.33934,1.002664l1.09816,0l-0.888428,0.619673l0.339357,1.002664l-0.888429,-0.61969l-0.888428,0.61969l0.339357,-1.002664l-0.888429,-0.619673z" stroke-width="null" fill="#ffffff"/>
  <path id="svg_46" d="m9.292812,12.960222l1.09816,0l0.33934,-1.002664l0.33934,1.002664l1.09816,0l-0.888428,0.619673l0.339357,1.002664l-0.888429,-0.61969l-0.888428,0.61969l0.339357,-1.002664l-0.888429,-0.619673z" stroke-width="null" fill="#ffffff"/>
  <path style="vector-effect: non-scaling-stroke;" id="svg_47" d="m13.292812,12.960222l1.09816,0l0.33934,-1.002664l0.33934,1.002664l1.09816,0l-0.888428,0.619673l0.339357,1.002664l-0.888429,-0.61969l-0.888428,0.61969l0.339357,-1.002664l-0.888429,-0.619673z" stroke-width="null" fill="#ffffff"/>
  <path style="vector-effect: non-scaling-stroke;" id="svg_48" d="m17.417812,12.835222l1.09816,0l0.33934,-1.002664l0.33934,1.002664l1.09816,0l-0.888428,0.619673l0.339357,1.002664l-0.888429,-0.61969l-0.888428,0.61969l0.339357,-1.002664l-0.888429,-0.619673z" stroke-width="null" fill="#ffffff"/>
  <path style="vector-effect: non-scaling-stroke;" id="svg_49" d="m21.542812,12.835222l1.09816,0l0.33934,-1.002664l0.33934,1.002664l1.09816,0l-0.888428,0.619673l0.339357,1.002664l-0.888429,-0.61969l-0.888428,0.61969l0.339357,-1.002664l-0.888429,-0.619673z" stroke-width="null" fill="#ffffff"/>
  <path style="vector-effect: non-scaling-stroke;" id="svg_50" d="m1.167812,7.585222l1.09816,0l0.33934,-1.002664l0.33934,1.002664l1.09816,0l-0.888428,0.619673l0.339357,1.002664l-0.888429,-0.61969l-0.888428,0.61969l0.339357,-1.002664l-0.888429,-0.619673z" stroke-width="null" fill="#ffffff"/>
  <path style="vector-effect: non-scaling-stroke;" id="svg_51" d="m5.292812,7.585222l1.09816,0l0.33934,-1.002664l0.33934,1.002664l1.09816,0l-0.888428,0.619673l0.339357,1.002664l-0.888429,-0.61969l-0.888428,0.61969l0.339357,-1.002664l-0.888429,-0.619673z" stroke-width="null" fill="#ffffff"/>
  <path style="vector-effect: non-scaling-stroke;" id="svg_52" d="m9.292812,7.585222l1.09816,0l0.33934,-1.002664l0.33934,1.002664l1.09816,0l-0.888428,0.619673l0.339357,1.002664l-0.888429,-0.61969l-0.888428,0.61969l0.339357,-1.002664l-0.888429,-0.619673z" stroke-width="null" fill="#ffffff"/>
  <path style="vector-effect: non-scaling-stroke;" id="svg_53" d="m13.292812,7.585222l1.09816,0l0.33934,-1.002664l0.33934,1.002664l1.09816,0l-0.888428,0.619673l0.339357,1.002664l-0.888429,-0.61969l-0.888428,0.61969l0.339357,-1.002664l-0.888429,-0.619673z" stroke-width="null" fill="#ffffff"/>
  <path style="vector-effect: non-scaling-stroke;" id="svg_54" d="m17.417812,7.460222l1.09816,0l0.33934,-1.002664l0.33934,1.002664l1.09816,0l-0.888428,0.619673l0.339357,1.002664l-0.888429,-0.61969l-0.888428,0.61969l0.339357,-1.002664l-0.888429,-0.619673z" stroke-width="null" fill="#ffffff"/>
  <path style="vector-effect: non-scaling-stroke;" id="svg_55" d="m21.542812,7.460222l1.09816,0l0.33934,-1.002664l0.33934,1.002664l1.09816,0l-0.888428,0.619673l0.339357,1.002664l-0.888429,-0.61969l-0.888428,0.61969l0.339357,-1.002664l-0.888429,-0.619673z" stroke-width="null" fill="#ffffff"/>
  <path style="vector-effect: non-scaling-stroke;" id="svg_56" d="m1.167812,18.335222l1.09816,0l0.33934,-1.002664l0.33934,1.002664l1.09816,0l-0.888428,0.619673l0.339357,1.002664l-0.888429,-0.61969l-0.888428,0.61969l0.339357,-1.002664l-0.888429,-0.619673z" stroke-width="null" fill="#ffffff"/>
  <path style="vector-effect: non-scaling-stroke;" id="svg_57" d="m5.292812,18.335222l1.09816,0l0.33934,-1.002664l0.33934,1.002664l1.09816,0l-0.888428,0.619673l0.339357,1.002664l-0.888429,-0.61969l-0.888428,0.61969l0.339357,-1.002664l-0.888429,-0.619673z" stroke-width="null" fill="#ffffff"/>
  <path style="vector-effect: non-scaling-stroke;" id="svg_58" d="m9.292812,18.335222l1.09816,0l0.33934,-1.002664l0.33934,1.002664l1.09816,0l-0.888428,0.619673l0.339357,1.002664l-0.888429,-0.61969l-0.888428,0.61969l0.339357,-1.002664l-0.888429,-0.619673z" stroke-width="null" fill="#ffffff"/>
  <path style="vector-effect: non-scaling-stroke;" id="svg_59" d="m13.292812,18.335222l1.09816,0l0.33934,-1.002664l0.33934,1.002664l1.09816,0l-0.888428,0.619673l0.339357,1.002664l-0.888429,-0.61969l-0.888428,0.61969l0.339357,-1.002664l-0.888429,-0.619673z" stroke-width="null" fill="#ffffff"/>
  <path style="vector-effect: non-scaling-stroke;" id="svg_60" d="m17.417812,18.210222l1.09816,0l0.33934,-1.002664l0.33934,1.002664l1.09816,0l-0.888428,0.619673l0.339357,1.002664l-0.888429,-0.61969l-0.888428,0.61969l0.339357,-1.002664l-0.888429,-0.619673z" stroke-width="null" fill="#ffffff"/>
  <path style="vector-effect: non-scaling-stroke;" id="svg_61" d="m21.542812,18.210222l1.09816,0l0.33934,-1.002664l0.33934,1.002664l1.09816,0l-0.888428,0.619673l0.339357,1.002664l-0.888429,-0.61969l-0.888428,0.61969l0.339357,-1.002664l-0.888429,-0.619673z" stroke-width="null" fill="#ffffff"/>
  <path style="vector-effect: non-scaling-stroke;" id="svg_62" d="m3.292812,4.835222l1.09816,0l0.33934,-1.002664l0.33934,1.002664l1.09816,0l-0.888428,0.619673l0.339357,1.002664l-0.888429,-0.61969l-0.888428,0.61969l0.339357,-1.002664l-0.888429,-0.619673z" stroke-width="null" fill="#ffffff"/>
  <path style="vector-effect: non-scaling-stroke;" id="svg_63" d="m7.292812,4.835222l1.09816,0l0.33934,-1.002664l0.33934,1.002664l1.09816,0l-0.888428,0.619673l0.339357,1.002664l-0.888429,-0.61969l-0.888428,0.61969l0.339357,-1.002664l-0.888429,-0.619673z" stroke-width="null" fill="#ffffff"/>
  <path style="vector-effect: non-scaling-stroke;" id="svg_64" d="m11.292812,4.835222l1.09816,0l0.33934,-1.002664l0.33934,1.002664l1.09816,0l-0.888428,0.619673l0.339357,1.002664l-0.888429,-0.61969l-0.888428,0.61969l0.339357,-1.002664l-0.888429,-0.619673z" stroke-width="null" fill="#ffffff"/>
  <path style="vector-effect: non-scaling-stroke;" id="svg_65" d="m15.417812,4.835222l1.09816,0l0.33934,-1.002664l0.33934,1.002664l1.09816,0l-0.888428,0.619673l0.339357,1.002664l-0.888429,-0.61969l-0.888428,0.61969l0.339357,-1.002664l-0.888429,-0.619673z" stroke-width="null" fill="#ffffff"/>
  <path style="vector-effect: non-scaling-stroke;" id="svg_66" d="m19.542812,4.710222l1.09816,0l0.33934,-1.002664l0.33934,1.002664l1.09816,0l-0.888428,0.619673l0.339357,1.002664l-0.888429,-0.61969l-0.888428,0.61969l0.339357,-1.002664l-0.888429,-0.619673z" stroke-width="null" fill="#ffffff"/>
  <path style="vector-effect: non-scaling-stroke;" id="svg_67" d="m3.292812,10.460222l1.09816,0l0.33934,-1.002664l0.33934,1.002664l1.09816,0l-0.888428,0.619673l0.339357,1.002664l-0.888429,-0.61969l-0.888428,0.61969l0.339357,-1.002664l-0.888429,-0.619673z" stroke-width="null" fill="#ffffff"/>
  <path style="vector-effect: non-scaling-stroke;" id="svg_68" d="m7.292812,10.460222l1.09816,0l0.33934,-1.002664l0.33934,1.002664l1.09816,0l-0.888428,0.619673l0.339357,1.002664l-0.888429,-0.61969l-0.888428,0.61969l0.339357,-1.002664l-0.888429,-0.619673z" stroke-width="null" fill="#ffffff"/>
  <path style="vector-effect: non-scaling-stroke;" id="svg_69" d="m11.292812,10.460222l1.09816,0l0.33934,-1.002664l0.33934,1.002664l1.09816,0l-0.888428,0.619673l0.339357,1.002664l-0.888429,-0.61969l-0.888428,0.61969l0.339357,-1.002664l-0.888429,-0.619673z" stroke-width="null" fill="#ffffff"/>
  <path style="vector-effect: non-scaling-stroke;" id="svg_70" d="m15.417812,10.335222l1.09816,0l0.33934,-1.002664l0.33934,1.002664l1.09816,0l-0.888428,0.619673l0.339357,1.002664l-0.888429,-0.61969l-0.888428,0.61969l0.339357,-1.002664l-0.888429,-0.619673z" stroke-width="null" fill="#ffffff"/>
  <path style="vector-effect: non-scaling-stroke;" id="svg_71" d="m19.542812,10.335222l1.09816,0l0.33934,-1.002664l0.33934,1.002664l1.09816,0l-0.888428,0.619673l0.339357,1.002664l-0.888429,-0.61969l-0.888428,0.61969l0.339357,-1.002664l-0.888429,-0.619673z" stroke-width="null" fill="#ffffff"/>
  <path style="vector-effect: non-scaling-stroke;" id="svg_72" d="m3.042812,15.835222l1.09816,0l0.33934,-1.002664l0.33934,1.002664l1.09816,0l-0.888428,0.619673l0.339357,1.002664l-0.888429,-0.61969l-0.888428,0.61969l0.339357,-1.002664l-0.888429,-0.619673z" stroke-width="null" fill="#ffffff"/>
  <path style="vector-effect: non-scaling-stroke;" id="svg_73" d="m7.042812,15.835222l1.09816,0l0.33934,-1.002664l0.33934,1.002664l1.09816,0l-0.888428,0.619673l0.339357,1.002664l-0.888429,-0.61969l-0.888428,0.61969l0.339357,-1.002664l-0.888429,-0.619673z" stroke-width="null" fill="#ffffff"/>
  <path style="vector-effect: non-scaling-stroke;" id="svg_74" d="m11.042812,15.835222l1.09816,0l0.33934,-1.002664l0.33934,1.002664l1.09816,0l-0.888428,0.619673l0.339357,1.002664l-0.888429,-0.61969l-0.888428,0.61969l0.339357,-1.002664l-0.888429,-0.619673z" stroke-width="null" fill="#ffffff"/>
  <path style="vector-effect: non-scaling-stroke;" id="svg_75" d="m15.167812,15.710222l1.09816,0l0.33934,-1.002664l0.33934,1.002664l1.09816,0l-0.888428,0.619673l0.339357,1.002664l-0.888429,-0.61969l-0.888428,0.61969l0.339357,-1.002664l-0.888429,-0.619673z" stroke-width="null" fill="#ffffff"/>
  <path style="vector-effect: non-scaling-stroke;" id="svg_76" d="m19.292812,15.710222l1.09816,0l0.33934,-1.002664l0.33934,1.002664l1.09816,0l-0.888428,0.619673l0.339357,1.002664l-0.888429,-0.61969l-0.888428,0.61969l0.339357,-1.002664l-0.888429,-0.619673z" stroke-width="null" fill="#ffffff"/>
  <path style="vector-effect: non-scaling-stroke;" id="svg_77" d="m3.167812,20.960222l1.09816,0l0.33934,-1.002664l0.33934,1.002664l1.09816,0l-0.888428,0.619673l0.339357,1.002664l-0.888429,-0.61969l-0.888428,0.61969l0.339357,-1.002664l-0.888429,-0.619673z" stroke-width="null" fill="#ffffff"/>
  <path style="vector-effect: non-scaling-stroke;" id="svg_78" d="m7.167812,20.960222l1.09816,0l0.33934,-1.002664l0.33934,1.002664l1.09816,0l-0.888428,0.619673l0.339357,1.002664l-0.888429,-0.61969l-0.888428,0.61969l0.339357,-1.002664l-0.888429,-0.619673z" stroke-width="null" fill="#ffffff"/>
  <path style="vector-effect: non-scaling-stroke;" id="svg_79" d="m11.167812,20.960222l1.09816,0l0.33934,-1.002664l0.33934,1.002664l1.09816,0l-0.888428,0.619673l0.339357,1.002664l-0.888429,-0.61969l-0.888428,0.61969l0.339357,-1.002664l-0.888429,-0.619673z" stroke-width="null" fill="#ffffff"/>
  <path style="vector-effect: non-scaling-stroke;" id="svg_80" d="m15.292812,20.835222l1.09816,0l0.33934,-1.002664l0.33934,1.002664l1.09816,0l-0.888428,0.619673l0.339357,1.002664l-0.888429,-0.61969l-0.888428,0.61969l0.339357,-1.002664l-0.888429,-0.619673z" stroke-width="null" fill="#ffffff"/>
  <path style="vector-effect: non-scaling-stroke;" id="svg_81" d="m19.417812,20.835222l1.09816,0l0.33934,-1.002664l0.33934,1.002664l1.09816,0l-0.888428,0.619673l0.339357,1.002664l-0.888429,-0.61969l-0.888428,0.61969l0.339357,-1.002664l-0.888429,-0.619673z" stroke-width="null" fill="#ffffff"/>
  <path stroke="#ffffff" transform="rotate(90 47.86336135864258,9.98850822448731) " id="svg_82" d="m38.175914,21.300947l0,-22.624878l19.374896,22.624878l-19.374896,0z" stroke-width="null" fill="#ffffff"/>
  <path stroke="#ffffff" transform="rotate(-90 52.17583847045899,10.48850631713867) " id="svg_83" d="m42.363389,22.113445l0,-23.249876l19.624898,23.249876l-19.624898,0z" stroke-width="null" fill="#ffffff"/>
  <rect stroke="#ffffff" id="svg_84" height="1.124994" width="11.124943" y="19.187525" x="36.687476" fill-opacity="null" stroke-opacity="null" stroke-width="null" fill="#ffffff"/>
  <path stroke="#002776" transform="rotate(90 48.12584686279297,8.302269935607915) " id="svg_86" d="m40.188395,17.73972l0,-18.874902l15.874906,18.874902l-15.874906,0z" stroke-width="null" fill="#002776"/>
  <path stroke="#002776" transform="rotate(-90 56.62580871582031,12.114753723144526) " id="svg_87" d="m50.500847,19.302215l0,-14.374925l12.249926,14.374925l-12.249926,0z" stroke-width="null" fill="#002776"/>
  <path stroke="#ffffff" id="svg_88" d="m36.300924,47.800813l0,-24.749868l27.249855,24.749868l-27.249855,0z" stroke-width="null" fill="#ffffff"/>
  <path stroke="#ffffff" transform="rotate(-180 54.61332702636719,34.42588424682617) " id="svg_89" d="m45.425878,42.42584l0,-15.999913l18.3749,15.999913l-18.3749,0z" stroke-width="null" fill="#ffffff"/>
  <rect stroke="#bf0000" id="svg_90" height="2.874985" width="12.124936" y="21.937511" x="33.93749" stroke-width="null" fill="#bf0000"/>
  <rect stroke="#bf0000" id="svg_91" height="5.12498" width="28.624851" y="21.312506" x="35.187475" stroke-width="null" fill="#bf0000"/>
  <path stroke="#002776" transform="rotate(-90 56.93830108642579,35.2396354675293) " id="svg_92" d="m62.813274,42.1146l0,-13.749929l-11.749945,13.749929l11.749945,0z" stroke-width="null" fill="#002776"/>
  <path stroke="#002776" transform="rotate(90 48.43834686279297,38.92711257934571) " id="svg_94" d="m57.125807,48.427062l0,-18.999901l-17.374921,18.999901l17.374921,0z" stroke-width="null" fill="#002776"/>
  <rect stroke="#ffffff" id="svg_95" height="0.999995" width="11.124943" y="27.437483" x="36.687476" fill-opacity="null" stroke-opacity="null" stroke-width="null" fill="#ffffff"/>
  <line stroke-linecap="null" stroke-linejoin="null" id="svg_98" y2="48.064982" x2="33.687491" y1="0.062622" x1="33.687491" fill-opacity="null" stroke-opacity="null" stroke-width="null" stroke="#ffffff" fill="none"/>
 </g>
</svg>